<svg xmlns="http://www.w3.org/2000/svg" width="64" height="64" viewBox="0 0 64 64" role="img" aria-label="CodeConClave">
  <rect x="0" y="0" width="64" height="64" rx="3" fill="#000000"/>
  <g id="radial-symbol">
    <path d="M 31.99 46.85 Q 31.77 32.38 31.77 17.92" fill="none" stroke="#ffffff" stroke-width="0.7" stroke-linecap="round"/>
    <path d="M 31.93 46.85 Q 30.62 32.40 30.61 17.96" fill="none" stroke="#ffffff" stroke-width="0.7" stroke-linecap="round"/>
    <path d="M 31.87 46.85 Q 29.48 32.45 29.46 18.04" fill="none" stroke="#ffffff" stroke-width="0.7" stroke-linecap="round"/>
    <path d="M 31.82 46.85 Q 28.35 32.51 28.31 18.18" fill="none" stroke="#ffffff" stroke-width="0.7" stroke-linecap="round"/>
    <path d="M 31.76 46.85 Q 27.22 32.61 27.18 18.37" fill="none" stroke="#ffffff" stroke-width="0.7" stroke-linecap="round"/>
    <path d="M 31.70 46.85 Q 26.12 32.73 26.07 18.61" fill="none" stroke="#ffffff" stroke-width="0.7" stroke-linecap="round"/>
    <path d="M 31.65 46.85 Q 25.04 32.87 24.98 18.89" fill="none" stroke="#ffffff" stroke-width="0.7" stroke-linecap="round"/>
    <path d="M 31.60 46.85 Q 23.98 33.04 23.91 19.23" fill="none" stroke="#ffffff" stroke-width="0.7" stroke-linecap="round"/>
    <path d="M 31.54 46.85 Q 22.95 33.23 22.88 19.61" fill="none" stroke="#ffffff" stroke-width="0.7" stroke-linecap="round"/>
    <path d="M 31.49 46.85 Q 21.96 33.44 21.88 20.04" fill="none" stroke="#ffffff" stroke-width="0.7" stroke-linecap="round"/>
    <path d="M 31.45 46.85 Q 21.00 33.68 20.91 20.51" fill="none" stroke="#ffffff" stroke-width="0.7" stroke-linecap="round"/>
    <path d="M 31.40 46.85 Q 20.08 33.93 19.98 21.02" fill="none" stroke="#ffffff" stroke-width="0.7" stroke-linecap="round"/>
    <path d="M 31.36 46.85 Q 19.21 34.21 19.10 21.57" fill="none" stroke="#ffffff" stroke-width="0.7" stroke-linecap="round"/>
    <path d="M 31.31 46.85 Q 18.38 34.50 18.27 22.16" fill="none" stroke="#ffffff" stroke-width="0.7" stroke-linecap="round"/>
    <path d="M 31.27 46.85 Q 17.60 34.82 17.48 22.79" fill="none" stroke="#ffffff" stroke-width="0.7" stroke-linecap="round"/>
    <path d="M 31.24 46.85 Q 16.88 35.15 16.75 23.44" fill="none" stroke="#ffffff" stroke-width="0.7" stroke-linecap="round"/>
    <path d="M 31.20 46.85 Q 16.21 35.49 16.07 24.13" fill="none" stroke="#ffffff" stroke-width="0.7" stroke-linecap="round"/>
    <path d="M 31.17 46.85 Q 15.59 35.85 15.46 24.85" fill="none" stroke="#ffffff" stroke-width="0.7" stroke-linecap="round"/>
    <path d="M 31.14 46.85 Q 15.04 36.22 14.90 25.60" fill="none" stroke="#ffffff" stroke-width="0.7" stroke-linecap="round"/>
    <path d="M 31.12 46.85 Q 14.55 36.61 14.40 26.37" fill="none" stroke="#ffffff" stroke-width="0.7" stroke-linecap="round"/>
    <path d="M 31.10 46.85 Q 14.12 37.00 13.97 27.16" fill="none" stroke="#ffffff" stroke-width="0.7" stroke-linecap="round"/>
    <path d="M 31.08 46.85 Q 13.76 37.41 13.61 27.96" fill="none" stroke="#ffffff" stroke-width="0.7" stroke-linecap="round"/>
    <path d="M 32.01 46.85 Q 32.23 32.38 32.23 17.92" fill="none" stroke="#ffffff" stroke-width="0.7" stroke-linecap="round"/>
    <path d="M 32.07 46.85 Q 33.38 32.40 33.39 17.96" fill="none" stroke="#ffffff" stroke-width="0.7" stroke-linecap="round"/>
    <path d="M 32.13 46.85 Q 34.52 32.45 34.54 18.04" fill="none" stroke="#ffffff" stroke-width="0.7" stroke-linecap="round"/>
    <path d="M 32.18 46.85 Q 35.65 32.51 35.69 18.18" fill="none" stroke="#ffffff" stroke-width="0.7" stroke-linecap="round"/>
    <path d="M 32.24 46.85 Q 36.78 32.61 36.82 18.37" fill="none" stroke="#ffffff" stroke-width="0.7" stroke-linecap="round"/>
    <path d="M 32.30 46.85 Q 37.88 32.73 37.93 18.61" fill="none" stroke="#ffffff" stroke-width="0.7" stroke-linecap="round"/>
    <path d="M 32.35 46.85 Q 38.96 32.87 39.02 18.89" fill="none" stroke="#ffffff" stroke-width="0.7" stroke-linecap="round"/>
    <path d="M 32.40 46.85 Q 40.02 33.04 40.09 19.23" fill="none" stroke="#ffffff" stroke-width="0.7" stroke-linecap="round"/>
    <path d="M 32.46 46.85 Q 41.05 33.23 41.12 19.61" fill="none" stroke="#ffffff" stroke-width="0.7" stroke-linecap="round"/>
    <path d="M 32.51 46.85 Q 42.04 33.44 42.12 20.04" fill="none" stroke="#ffffff" stroke-width="0.7" stroke-linecap="round"/>
    <path d="M 32.55 46.85 Q 43.00 33.68 43.09 20.51" fill="none" stroke="#ffffff" stroke-width="0.7" stroke-linecap="round"/>
    <path d="M 32.60 46.85 Q 43.92 33.93 44.02 21.02" fill="none" stroke="#ffffff" stroke-width="0.7" stroke-linecap="round"/>
    <path d="M 32.64 46.85 Q 44.79 34.21 44.90 21.57" fill="none" stroke="#ffffff" stroke-width="0.7" stroke-linecap="round"/>
    <path d="M 32.69 46.85 Q 45.62 34.50 45.73 22.16" fill="none" stroke="#ffffff" stroke-width="0.7" stroke-linecap="round"/>
    <path d="M 32.73 46.85 Q 46.40 34.82 46.52 22.79" fill="none" stroke="#ffffff" stroke-width="0.7" stroke-linecap="round"/>
    <path d="M 32.76 46.85 Q 47.12 35.15 47.25 23.44" fill="none" stroke="#ffffff" stroke-width="0.7" stroke-linecap="round"/>
    <path d="M 32.80 46.85 Q 47.79 35.49 47.93 24.13" fill="none" stroke="#ffffff" stroke-width="0.7" stroke-linecap="round"/>
    <path d="M 32.83 46.85 Q 48.41 35.85 48.54 24.85" fill="none" stroke="#ffffff" stroke-width="0.7" stroke-linecap="round"/>
    <path d="M 32.86 46.85 Q 48.96 36.22 49.10 25.60" fill="none" stroke="#ffffff" stroke-width="0.7" stroke-linecap="round"/>
    <path d="M 32.88 46.85 Q 49.45 36.61 49.60 26.37" fill="none" stroke="#ffffff" stroke-width="0.7" stroke-linecap="round"/>
    <path d="M 32.90 46.85 Q 49.88 37.00 50.03 27.16" fill="none" stroke="#ffffff" stroke-width="0.7" stroke-linecap="round"/>
    <path d="M 32.92 46.85 Q 50.24 37.41 50.39 27.96" fill="none" stroke="#ffffff" stroke-width="0.7" stroke-linecap="round"/>
  </g>
</svg>
