<svg xmlns="http://www.w3.org/2000/svg" width="512" height="512" viewBox="0 0 512 512" role="img" aria-label="CodeConClave">
  <rect x="0" y="0" width="512" height="512" rx="20" fill="#000000"/>
  <g id="radial-symbol">
    <path d="M 255.91 374.78 Q 254.17 259.08 254.16 143.37" fill="none" stroke="#ffffff" stroke-width="5.6" stroke-linecap="round"/>
    <path d="M 255.44 374.78 Q 244.98 259.22 244.89 143.65" fill="none" stroke="#ffffff" stroke-width="5.6" stroke-linecap="round"/>
    <path d="M 254.98 374.78 Q 235.84 259.57 235.67 144.35" fill="none" stroke="#ffffff" stroke-width="5.6" stroke-linecap="round"/>
    <path d="M 254.53 374.78 Q 226.76 260.12 226.52 145.45" fill="none" stroke="#ffffff" stroke-width="5.6" stroke-linecap="round"/>
    <path d="M 254.07 374.78 Q 217.80 260.87 217.47 146.96" fill="none" stroke="#ffffff" stroke-width="5.6" stroke-linecap="round"/>
    <path d="M 253.63 374.78 Q 208.97 261.82 208.57 148.86" fill="none" stroke="#ffffff" stroke-width="5.6" stroke-linecap="round"/>
    <path d="M 253.19 374.78 Q 200.31 262.97 199.84 151.16" fill="none" stroke="#ffffff" stroke-width="5.6" stroke-linecap="round"/>
    <path d="M 252.77 374.78 Q 191.86 264.31 191.32 153.83" fill="none" stroke="#ffffff" stroke-width="5.6" stroke-linecap="round"/>
    <path d="M 252.35 374.78 Q 183.64 265.83 183.03 156.88" fill="none" stroke="#ffffff" stroke-width="5.6" stroke-linecap="round"/>
    <path d="M 251.95 374.78 Q 175.68 267.54 175.01 160.29" fill="none" stroke="#ffffff" stroke-width="5.6" stroke-linecap="round"/>
    <path d="M 251.56 374.78 Q 168.02 269.42 167.28 164.05" fill="none" stroke="#ffffff" stroke-width="5.6" stroke-linecap="round"/>
    <path d="M 251.19 374.78 Q 160.67 271.46 159.87 168.15" fill="none" stroke="#ffffff" stroke-width="5.6" stroke-linecap="round"/>
    <path d="M 250.84 374.78 Q 153.68 273.67 152.82 172.56" fill="none" stroke="#ffffff" stroke-width="5.6" stroke-linecap="round"/>
    <path d="M 250.51 374.78 Q 147.06 276.03 146.14 177.28" fill="none" stroke="#ffffff" stroke-width="5.6" stroke-linecap="round"/>
    <path d="M 250.19 374.78 Q 140.83 278.53 139.86 182.28" fill="none" stroke="#ffffff" stroke-width="5.6" stroke-linecap="round"/>
    <path d="M 249.90 374.78 Q 135.03 281.17 134.01 187.56" fill="none" stroke="#ffffff" stroke-width="5.6" stroke-linecap="round"/>
    <path d="M 249.63 374.78 Q 129.66 283.93 128.60 193.08" fill="none" stroke="#ffffff" stroke-width="5.6" stroke-linecap="round"/>
    <path d="M 249.38 374.78 Q 124.76 286.81 123.65 198.83" fill="none" stroke="#ffffff" stroke-width="5.6" stroke-linecap="round"/>
    <path d="M 249.16 374.78 Q 120.33 289.79 119.19 204.79" fill="none" stroke="#ffffff" stroke-width="5.6" stroke-linecap="round"/>
    <path d="M 248.96 374.78 Q 116.40 292.86 115.23 210.94" fill="none" stroke="#ffffff" stroke-width="5.6" stroke-linecap="round"/>
    <path d="M 248.79 374.78 Q 112.98 296.02 111.77 217.25" fill="none" stroke="#ffffff" stroke-width="5.6" stroke-linecap="round"/>
    <path d="M 248.64 374.78 Q 110.08 299.24 108.85 223.70" fill="none" stroke="#ffffff" stroke-width="5.6" stroke-linecap="round"/>
    <path d="M 256.09 374.78 Q 257.83 259.08 257.84 143.37" fill="none" stroke="#ffffff" stroke-width="5.6" stroke-linecap="round"/>
    <path d="M 256.56 374.78 Q 267.02 259.22 267.11 143.65" fill="none" stroke="#ffffff" stroke-width="5.6" stroke-linecap="round"/>
    <path d="M 257.02 374.78 Q 276.16 259.57 276.33 144.35" fill="none" stroke="#ffffff" stroke-width="5.6" stroke-linecap="round"/>
    <path d="M 257.47 374.78 Q 285.24 260.12 285.48 145.45" fill="none" stroke="#ffffff" stroke-width="5.6" stroke-linecap="round"/>
    <path d="M 257.93 374.78 Q 294.20 260.87 294.53 146.96" fill="none" stroke="#ffffff" stroke-width="5.6" stroke-linecap="round"/>
    <path d="M 258.37 374.78 Q 303.03 261.82 303.43 148.86" fill="none" stroke="#ffffff" stroke-width="5.6" stroke-linecap="round"/>
    <path d="M 258.81 374.78 Q 311.69 262.97 312.16 151.16" fill="none" stroke="#ffffff" stroke-width="5.6" stroke-linecap="round"/>
    <path d="M 259.23 374.78 Q 320.14 264.31 320.68 153.83" fill="none" stroke="#ffffff" stroke-width="5.6" stroke-linecap="round"/>
    <path d="M 259.65 374.78 Q 328.36 265.83 328.97 156.88" fill="none" stroke="#ffffff" stroke-width="5.6" stroke-linecap="round"/>
    <path d="M 260.05 374.78 Q 336.32 267.54 336.99 160.29" fill="none" stroke="#ffffff" stroke-width="5.6" stroke-linecap="round"/>
    <path d="M 260.44 374.78 Q 343.98 269.42 344.72 164.05" fill="none" stroke="#ffffff" stroke-width="5.6" stroke-linecap="round"/>
    <path d="M 260.81 374.78 Q 351.33 271.46 352.13 168.15" fill="none" stroke="#ffffff" stroke-width="5.6" stroke-linecap="round"/>
    <path d="M 261.16 374.78 Q 358.32 273.67 359.18 172.56" fill="none" stroke="#ffffff" stroke-width="5.6" stroke-linecap="round"/>
    <path d="M 261.49 374.78 Q 364.94 276.03 365.86 177.28" fill="none" stroke="#ffffff" stroke-width="5.6" stroke-linecap="round"/>
    <path d="M 261.81 374.78 Q 371.17 278.53 372.14 182.28" fill="none" stroke="#ffffff" stroke-width="5.6" stroke-linecap="round"/>
    <path d="M 262.10 374.78 Q 376.97 281.17 377.99 187.56" fill="none" stroke="#ffffff" stroke-width="5.6" stroke-linecap="round"/>
    <path d="M 262.37 374.78 Q 382.34 283.93 383.40 193.08" fill="none" stroke="#ffffff" stroke-width="5.6" stroke-linecap="round"/>
    <path d="M 262.62 374.78 Q 387.24 286.81 388.35 198.83" fill="none" stroke="#ffffff" stroke-width="5.6" stroke-linecap="round"/>
    <path d="M 262.84 374.78 Q 391.67 289.79 392.81 204.79" fill="none" stroke="#ffffff" stroke-width="5.6" stroke-linecap="round"/>
    <path d="M 263.04 374.78 Q 395.60 292.86 396.77 210.94" fill="none" stroke="#ffffff" stroke-width="5.6" stroke-linecap="round"/>
    <path d="M 263.21 374.78 Q 399.02 296.02 400.23 217.25" fill="none" stroke="#ffffff" stroke-width="5.6" stroke-linecap="round"/>
    <path d="M 263.36 374.78 Q 401.92 299.24 403.15 223.70" fill="none" stroke="#ffffff" stroke-width="5.6" stroke-linecap="round"/>
  </g>
</svg>
